<svg width="233" height="499" viewBox="0 0 233 499" fill="none" xmlns="http://www.w3.org/2000/svg">
<path fill-rule="evenodd" clip-rule="evenodd" d="M1.51984 249.666C1.29001 180.362 1.06018 111.057 0.831091 41.7523C0.813838 36.5497 0.744081 31.3421 1.36931 26.1632C2.15426 19.6599 4.34883 13.7862 9.12726 9.08809C13.2381 5.04495 18.2734 2.90077 23.8663 1.92419C26.7233 1.42461 29.6078 1.19328 32.5106 1.13486C38.3044 1.01807 44.097 0.975946 49.8929 1.041C52.1662 1.06598 53.5752 2.6366 53.6772 4.6159C53.761 6.25817 53.8093 7.90648 54.1615 9.54417C55.2975 14.8281 59.8319 19.0281 65.4068 19.5655C67.0596 19.7248 68.7083 19.7911 70.3635 19.7856C100.7 19.6857 131.036 19.5844 161.373 19.4808C163.678 19.4732 165.979 19.436 168.228 18.8209C173.752 17.3108 177.397 12.4065 177.653 6.67229C177.699 5.60987 177.741 4.54082 177.896 3.4906C178.132 1.90049 179.255 0.863339 180.843 0.676963C181.488 0.600901 182.14 0.554386 182.789 0.550014C189.057 0.512226 195.329 0.382023 201.592 0.668031C206.576 0.895446 211.482 1.66793 216.006 3.93121C223.364 7.61105 227.697 13.6457 229.542 21.5796C230.472 25.5794 230.674 29.6504 230.779 33.7298C230.844 36.271 230.856 38.8147 230.865 41.3576C231.331 180.263 231.794 319.168 232.255 458.074C232.271 462.923 232.297 467.774 231.712 472.599C230.922 479.101 228.726 484.978 223.95 489.672C220.118 493.437 215.454 495.583 210.25 496.631C205.768 497.535 201.217 497.715 196.662 497.737C182.647 497.803 168.632 497.843 154.617 497.89C116.593 498.017 78.5683 498.141 40.5434 498.271C35.8706 498.287 31.1978 498.257 26.5605 497.603C19.3421 496.585 13.0816 493.748 8.4773 487.865C5.64656 484.248 4.0412 480.097 3.21614 475.62C2.26836 470.475 2.25331 465.267 2.23384 460.064C2.12473 431.621 2.03632 403.178 1.94199 374.734C1.803 333.045 1.66548 291.355 1.52724 249.666L1.51984 249.666Z" fill="#0B0F19"/>
</svg>
