<svg width="48" height="48" viewBox="0 0 48 48" fill="none" xmlns="http://www.w3.org/2000/svg">
<path fill-rule="evenodd" clip-rule="evenodd" d="M24.0002 44C23.5942 44 23.1882 43.876 22.8402 43.628C22.2322 43.198 7.94218 32.88 8.00018 19.99C8.00018 11.178 15.1782 4 24.0002 4C32.8222 4 40.0002 11.178 40.0002 20C40.0582 32.88 25.7682 43.198 25.1602 43.628C24.8122 43.876 24.4062 44 24.0002 44ZM24 28C28.4183 28 32 24.4183 32 20C32 15.5817 28.4183 12 24 12C19.5817 12 16 15.5817 16 20C16 24.4183 19.5817 28 24 28Z" fill="#6366F1"/>
</svg>
