<svg width="36" height="36" viewBox="0 0 36 36" fill="none" xmlns="http://www.w3.org/2000/svg">
<rect x="0.5" y="0.5" width="35" height="35" rx="17.5" fill="white"/>
<rect x="0.5" y="0.5" width="35" height="35" rx="17.5" stroke="#E2E5F1"/>
<path d="M16.3332 17.1668H13.9173C13.9173 17.1643 13.9173 17.1618 13.9182 17.1593C13.9723 16.8935 14.054 16.6309 14.1607 16.3784C14.2657 16.1309 14.3948 15.8926 14.5448 15.6701C14.6932 15.4501 14.8648 15.2426 15.0532 15.0535C15.2423 14.8651 15.4498 14.6935 15.6715 14.5443C15.8932 14.3943 16.1307 14.266 16.3782 14.161C16.6298 14.0543 16.8923 13.9726 17.1598 13.9185C17.7082 13.806 18.2907 13.806 18.8415 13.9185C19.1065 13.9726 19.3698 14.0543 19.6223 14.161C19.869 14.2651 20.1065 14.3951 20.3307 14.5451C20.5523 14.6943 20.759 14.8651 20.9457 15.0526L22.1257 13.876C21.864 13.6126 21.5723 13.3726 21.2623 13.1635C20.9515 12.9535 20.6182 12.7718 20.2723 12.6251C19.9182 12.4751 19.549 12.361 19.1765 12.2851C18.4073 12.1276 17.594 12.1276 16.8273 12.2851C16.4532 12.3618 16.084 12.476 15.7307 12.626C15.3815 12.7726 15.0482 12.9535 14.7382 13.1635C14.4298 13.371 14.1398 13.611 13.8748 13.8751C13.6098 14.1393 13.3707 14.4301 13.164 14.7376C12.954 15.0485 12.7723 15.3818 12.6257 15.7293C12.4757 16.0826 12.3615 16.4518 12.2857 16.8251C12.2623 16.9376 12.2498 17.0526 12.2332 17.1668H9.6665L12.9998 20.5001L16.3332 17.1668ZM19.6665 18.8335H22.0823C22.0815 18.8359 22.0823 18.8385 22.0815 18.8401C22.0265 19.1101 21.9448 19.3726 21.8382 19.6218C21.7357 19.866 21.6065 20.1043 21.4557 20.3285C21.3065 20.5485 21.1348 20.7568 20.9448 20.9468C20.7573 21.1343 20.5507 21.3051 20.329 21.4551C20.1057 21.6051 19.8682 21.7343 19.6215 21.8393C19.369 21.946 19.1065 22.0276 18.8398 22.0818C18.2923 22.1943 17.709 22.1943 17.159 22.0818C16.8932 22.0276 16.6307 21.946 16.3782 21.8393C16.1307 21.7343 15.8923 21.6051 15.6698 21.4551C15.4498 21.3068 15.2423 21.1351 15.0532 20.9468L13.8748 22.1251C14.139 22.3893 14.4298 22.6293 14.7373 22.8368C15.0482 23.0468 15.3815 23.2285 15.729 23.3751C16.0823 23.5251 16.4515 23.6393 16.8248 23.7151C17.209 23.7935 17.604 23.8335 17.9998 23.8335C18.3957 23.8335 18.7907 23.7935 19.1732 23.7151C19.5473 23.6393 19.9173 23.5243 20.2707 23.3743C20.6165 23.2276 20.9498 23.0468 21.2607 22.8368C21.5707 22.6276 21.8623 22.3868 22.1232 22.1251C22.3873 21.861 22.6273 21.5701 22.8357 21.261C23.0473 20.9468 23.229 20.6135 23.3732 20.2718C23.5215 19.9218 23.6357 19.5526 23.7132 19.1751C23.7357 19.0626 23.749 18.9476 23.7657 18.8335H26.3332L22.9998 15.5001L19.6665 18.8335Z" fill="#33354D"/>
</svg>
