<svg width="26" height="27" viewBox="0 0 26 27" fill="none" xmlns="http://www.w3.org/2000/svg">
<path d="M25.5308 9.38011C25.5309 7.67414 25.0164 6.00791 24.0547 4.59967C23.093 3.19144 21.7289 2.10685 20.1412 1.488C18.5534 0.869131 16.816 0.744845 15.1565 1.13141C13.4969 1.51797 11.9928 2.39737 10.8408 3.6544H0.157227V26.2315H22.7144V15.6801C23.5997 14.8873 24.3082 13.9164 24.7935 12.8308C25.2788 11.7452 25.5301 10.5695 25.5308 9.38011ZM21.1906 9.38011C21.1923 10.1976 20.9518 10.9972 20.4994 11.6778C20.047 12.3583 19.4033 12.8892 18.6494 13.2031C17.8956 13.5172 17.0657 13.6003 16.2647 13.4418C15.4637 13.2834 14.7277 12.8905 14.1498 12.3131C13.5719 11.7356 13.1781 10.9995 13.0182 10.1978C12.8582 9.39623 12.9395 8.56506 13.2515 7.80966C13.5635 7.05422 14.0924 6.40848 14.7711 5.95413C15.4499 5.49979 16.248 5.25727 17.0644 5.25726C18.1573 5.25726 19.2055 5.69136 19.979 6.46429C20.7527 7.23723 21.1884 8.28589 21.1906 9.38011ZM18.3742 21.8858H4.49745V8.00011H8.72638C8.64471 8.45569 8.60173 8.91734 8.59797 9.38011C8.60028 11.6277 9.49298 13.7826 11.0803 15.3719C12.6675 16.9611 14.8196 17.855 17.0644 17.8573C17.5033 17.8549 17.9413 17.8177 18.3742 17.7458V21.8858Z" fill="#B4B7C9"/>
</svg>
