<svg width="79" height="16" viewBox="0 0 79 16" fill="none" xmlns="http://www.w3.org/2000/svg">
<path d="M0.966797 1.65152H3.71475V12.7944H0.966797V1.65152ZM4.81051 8.60295C4.81051 5.84295 6.52263 4.18866 9.09081 4.18866C11.659 4.18866 13.3711 5.84295 13.3711 8.60295C13.3711 11.3629 11.7189 13.0344 9.09081 13.0344C6.46271 13.0344 4.81051 11.4229 4.81051 8.60295ZM10.6488 8.60295C10.6488 7.08581 10.0582 6.19438 9.11649 6.19438C8.17483 6.19438 7.59271 7.05152 7.59271 8.60295C7.59271 10.1544 8.17483 11.0029 9.11649 11.0029C10.0582 11.0029 10.666 10.1544 10.666 8.61152L10.6488 8.60295ZM14.4669 13.3687H17.1207C17.2415 13.6547 17.4525 13.8934 17.7214 14.0481C17.9904 14.2029 18.3025 14.2653 18.6102 14.2258C19.6632 14.2258 20.211 13.6601 20.211 12.8201V11.2772H20.2196C19.9928 11.7577 19.6261 12.158 19.1678 12.4258C18.7093 12.6936 18.1807 12.8161 17.6514 12.7772C15.6397 12.7772 14.3042 11.2429 14.3042 8.60295C14.3042 5.96295 15.5798 4.31723 17.7285 4.31723C18.2713 4.28818 18.8098 4.42832 19.2697 4.71846C19.7297 5.00861 20.0885 5.43443 20.2966 5.93723H20.2196V4.38581H22.9419V12.7344C22.9419 14.7487 21.1613 16.0087 18.5417 16.0087C16.1619 16.0001 14.6381 14.9115 14.484 13.3772L14.4669 13.3687ZM20.2196 8.60295C20.2196 7.25724 19.6032 6.40866 18.6273 6.40866C17.6514 6.40866 17.0522 7.26581 17.0522 8.60295C17.0522 9.94009 17.6429 10.7287 18.6273 10.7287C19.6118 10.7287 20.2196 10.0001 20.2196 8.60295ZM24.0291 8.60295C24.0291 5.84295 25.7412 4.18866 28.3094 4.18866C30.8776 4.18866 32.5897 5.84295 32.5897 8.60295C32.5897 11.3629 30.9289 13.0344 28.3094 13.0344C25.6898 13.0344 24.0462 11.4229 24.0462 8.60295H24.0291ZM29.8674 8.60295C29.8674 7.08581 29.2682 6.19438 28.3351 6.19438C27.402 6.19438 26.8113 7.05152 26.8113 8.60295C26.8113 10.1544 27.3934 11.0029 28.3351 11.0029C29.2767 11.0029 29.8845 10.1544 29.8845 8.61152L29.8674 8.60295ZM33.7026 2.35438C33.6906 2.07409 33.7626 1.79663 33.9095 1.55775C34.0563 1.31878 34.2712 1.12935 34.5264 1.01372C34.7817 0.898005 35.0657 0.861492 35.3418 0.908806C35.618 0.956035 35.8737 1.08495 36.0761 1.27892C36.2784 1.47298 36.4182 1.72309 36.4775 1.99729C36.5366 2.27149 36.5126 2.55718 36.4083 2.81749C36.304 3.07789 36.1244 3.30109 35.8924 3.45838C35.6604 3.61566 35.3867 3.69983 35.1065 3.70009C34.9275 3.70463 34.7493 3.67352 34.5823 3.60863C34.4154 3.54366 34.2629 3.44612 34.1339 3.32175C34.0049 3.19738 33.9019 3.04858 33.8308 2.88392C33.7597 2.71935 33.7219 2.54226 33.7197 2.36295L33.7026 2.35438ZM33.7026 4.37723H36.4848V12.8287H33.7454L33.7026 4.37723ZM46.4921 8.60295C46.4921 11.3544 45.2594 12.9487 43.162 12.9487C42.6251 12.9818 42.0909 12.8491 41.6316 12.5687C41.1724 12.2881 40.8102 11.8733 40.5938 11.3801H40.5425V15.5458H37.7945V4.40295H40.5254V5.91152H40.5767C40.7856 5.40863 41.1443 4.98238 41.6038 4.69095C42.0634 4.39952 42.6016 4.25706 43.1449 4.28295C45.3022 4.26581 46.5435 5.85152 46.5435 8.61152L46.4921 8.60295ZM43.6928 8.60295C43.6928 7.26581 43.0679 6.40009 42.1005 6.40009C41.1332 6.40009 40.5254 7.25724 40.5168 8.60295C40.5082 9.94866 41.1332 10.7972 42.1005 10.7972C43.0679 10.7972 43.7442 10.0001 43.7442 8.61152L43.6928 8.60295ZM51.1833 4.18009C53.4861 4.18009 54.9157 5.26866 54.9329 7.01723H52.4246C52.4246 6.40866 51.9195 6.03152 51.1662 6.03152C50.4129 6.03152 50.0533 6.32295 50.0533 6.76009C50.0533 7.19723 50.3701 7.33438 51.0035 7.46295L52.767 7.82295C54.4791 8.18295 55.164 8.86866 55.164 10.1458C55.164 11.8601 53.5803 13.0258 51.2261 13.0258C48.872 13.0258 47.3396 11.8944 47.2283 10.1715H49.8907C49.9677 10.7972 50.4642 11.1658 51.2689 11.1658C52.0736 11.1658 52.4503 10.9087 52.4503 10.4544C52.4503 10.0001 52.1935 9.92295 51.5343 9.78581L49.942 9.45152C48.2898 9.10009 47.4252 8.23438 47.4252 6.94009C47.4766 5.26009 48.9148 4.18866 51.2347 4.18866L51.1833 4.18009ZM64.3666 12.8201H61.7043V11.2344H61.6529C61.504 11.7633 61.1795 12.2256 60.7327 12.5449C60.2858 12.8644 59.7439 13.0219 59.196 12.9915C58.7826 13.005 58.3699 12.9307 57.9873 12.7735C57.6046 12.6164 57.2588 12.3799 56.9737 12.0797C56.6878 11.7793 56.4695 11.422 56.3317 11.0311C56.1938 10.6403 56.1399 10.2246 56.1742 9.81152V4.38581H58.9221V9.22009C58.9221 10.2144 59.4443 10.7544 60.3004 10.7544C60.5015 10.7528 60.6993 10.7082 60.8816 10.6235C61.064 10.5387 61.2258 10.4158 61.3559 10.2631C61.4869 10.1103 61.5836 9.93126 61.6392 9.73806C61.694 9.54478 61.7077 9.34189 61.6786 9.14295V4.38581H64.418L64.3666 12.8201ZM65.6935 4.37723H68.3644V6.00581H68.4244C68.5716 5.48406 68.8884 5.02609 69.3232 4.70346C69.759 4.38092 70.2889 4.21189 70.8299 4.22295C71.3735 4.17563 71.9154 4.33301 72.3486 4.66429C72.7826 4.99558 73.0771 5.47703 73.1755 6.01438H73.2954C73.4666 5.47412 73.8107 5.00561 74.2755 4.68169C74.7395 4.35769 75.2985 4.19646 75.8635 4.22295C76.2394 4.20863 76.6143 4.27395 76.9627 4.41461C77.312 4.55518 77.627 4.76801 77.8881 5.03912C78.1492 5.31015 78.3495 5.63338 78.4771 5.98755C78.6055 6.34172 78.6569 6.71886 78.6286 7.09438V12.8287H75.8635V7.79723C75.8635 6.94009 75.4612 6.46009 74.6822 6.46009C74.5093 6.45726 74.338 6.49189 74.1797 6.56149C74.0213 6.63118 73.8809 6.73429 73.7662 6.86372C73.6515 6.99323 73.5659 7.14589 73.5154 7.31149C73.4657 7.47709 73.452 7.65152 73.4751 7.82295V12.8287H70.8556V7.77152C70.8556 6.91438 70.4361 6.46009 69.6828 6.46009C69.5081 6.45872 69.3352 6.49472 69.176 6.56569C69.0159 6.63675 68.8738 6.74106 68.7574 6.87178C68.6418 7.00249 68.5554 7.15652 68.504 7.32349C68.4518 7.49055 68.4364 7.66669 68.4586 7.84009V12.8287H65.7107L65.6935 4.37723Z" fill="#B4B7C9"/>
</svg>
